HIERARCHY
ROOT Hips
{
	OFFSET 0.000000 0.000000 0.000000
	CHANNELS 6 Xposition Yposition Zposition Zrotation Yrotation Xrotation 
	JOINT LowerBack
	{
		OFFSET 0.000000 0.000000 0.000000
		CHANNELS 3 Zrotation Yrotation Xrotation
		JOINT Spine
		{
			OFFSET 0.028270 2.035590 -0.193380
			CHANNELS 3 Zrotation Yrotation Xrotation
			JOINT Spine1
			{
				OFFSET 0.056720 2.048850 -0.042750
				CHANNELS 3 Zrotation Yrotation Xrotation
				JOINT Neck
				{
					OFFSET 0.000000 0.000000 0.000000
					CHANNELS 3 Zrotation Yrotation Xrotation
					JOINT Neck1
					{
						OFFSET -0.054170 1.746240 0.172020
						CHANNELS 3 Zrotation Yrotation Xrotation
						JOINT Head
						{
							OFFSET 0.104070 1.761360 -0.123970
							CHANNELS 3 Zrotation Yrotation Xrotation
							End Site
							{
								OFFSET 0.000000 0.000000 0.000000
							}
						}
					}
				}
				JOINT LeftShoulder
				{
					OFFSET 0.000000 0.000000 0.000000
					CHANNELS 3 Zrotation Yrotation Xrotation
					JOINT LeftArm
					{
						OFFSET 3.362410 1.200890 -0.311210
						CHANNELS 3 Zrotation Yrotation Xrotation
						JOINT LeftForeArm
						{
							OFFSET 4.983000 -0.000000 -0.000000
							CHANNELS 3 Zrotation Yrotation Xrotation
							JOINT LeftHand
							{
								OFFSET 3.483560 -0.000000 -0.000000
								CHANNELS 3 Zrotation Yrotation Xrotation
								JOINT LeftFingerBase
								{
									OFFSET 0.000000 0.000000 0.000000
									CHANNELS 3 Zrotation Yrotation Xrotation
									JOINT LeftHandIndex1
									{
										OFFSET 0.715260 -0.000000 -0.000000
										CHANNELS 3 Zrotation Yrotation Xrotation
										End Site
										{
											OFFSET 0.000000 0.000000 0.000000
										}
									}
								}
								JOINT LThumb
								{
									OFFSET 0.000000 0.000000 0.000000
									CHANNELS 3 Zrotation Yrotation Xrotation
									End Site
									{
										OFFSET 0.000000 0.000000 0.000000
									}
								}
							}
						}
					}
				}
				JOINT RightShoulder
				{
					OFFSET 0.000000 0.000000 0.000000
					CHANNELS 3 Zrotation Yrotation Xrotation
					JOINT RightArm
					{
						OFFSET -3.136600 1.374050 -0.404650
						CHANNELS 3 Zrotation Yrotation Xrotation
						JOINT RightForeArm
						{
							OFFSET -5.241900 -0.000000 -0.000000
							CHANNELS 3 Zrotation Yrotation Xrotation
							JOINT RightHand
							{
								OFFSET -3.444170 -0.000000 -0.000000
								CHANNELS 3 Zrotation Yrotation Xrotation
								JOINT RightFingerBase
								{
									OFFSET 0.000000 0.000000 0.000000
									CHANNELS 3 Zrotation Yrotation Xrotation
									JOINT RightHandIndex1
									{
										OFFSET -0.622530 -0.000000 -0.000000
										CHANNELS 3 Zrotation Yrotation Xrotation
										End Site
										{
											OFFSET 0.000000 0.000000 0.000000
										}
									}
								}
								JOINT RThumb
								{
									OFFSET 0.000000 0.000000 0.000000
									CHANNELS 3 Zrotation Yrotation Xrotation
									End Site
									{
										OFFSET 0.000000 0.000000 0.000000
									}
								}
							}
						}
					}
				}
			}
		}
	}
}
}
MOTION
Frames: 10
Frame Time: 0.008333
3.557162 17.236463 0.908882 -8.378129 -86.578914 19.696398 0.230875 -2.720947 -4.256448 -0.301107 -2.809933 -3.444867 -6.536709 -2.572452 -0.224767 8.562118 -9.652065 -2.045908 -3.978607 -0.358044 1.540812 0.000000 0.000000 0.000000 12.145670 6.228701 -2.298902 -83.832441 -15.469305 16.911606 -178.140833 -52.633582 179.981967 1.285914 -7.826068 -0.091979 0.035792 1.173099 -0.000000 0.000000 0.000000 0.000000 0.000000 0.000000 0.000000 1.268815 -7.568866 -3.557181 85.676272 22.625688 31.903305 -179.277343 54.853961 179.854902 -12.323095 8.608078 -1.059521 0.329503 -0.959803 -0.000000 0.000000 0.000000 0.000000 0.000000 0.000000 0.000000 
3.557165 17.238604 0.903834 -6.838074 -85.390089 18.320532 0.130450 -2.680414 -4.426017 -0.316234 -2.760379 -3.471498 -6.494532 -2.524368 -0.238950 8.677831 -9.485839 -1.817016 -3.940186 -0.357275 1.603226 0.000000 0.000000 0.000000 12.164037 6.278342 -2.398454 -84.466551 -16.957124 18.275141 -178.043850 -53.072887 179.982886 1.281326 -7.898143 -0.093084 0.028243 1.189336 -0.000000 0.000000 0.000000 0.000000 0.000000 0.000000 0.000000 1.284817 -7.571524 -3.591762 84.850165 23.381699 30.941688 -179.215618 54.782202 179.848913 -12.783114 8.594859 -1.097967 0.340665 -0.960068 -0.000000 0.000000 0.000000 0.000000 0.000000 0.000000 0.000000 
3.558025 17.241321 0.899327 -5.738378 -84.220806 17.375476 -0.013423 -2.630703 -4.613576 -0.332684 -2.696746 -3.516797 -6.410602 -2.467679 -0.322450 8.780847 -9.209408 -1.472854 -3.893448 -0.357159 1.697685 0.000000 0.000000 0.000000 12.157371 6.164194 -2.484483 -85.172088 -18.316043 19.708415 -177.995428 -53.551097 179.983151 1.287904 -7.956656 -0.094738 0.023608 1.203231 -0.000000 0.000000 0.000000 0.000000 0.000000 0.000000 0.000000 1.291463 -7.455160 -3.622815 83.782076 24.411090 29.822181 -179.164453 54.785355 179.842194 -13.295118 8.576808 -1.140337 0.353183 -0.960434 -0.000000 0.000000 0.000000 0.000000 0.000000 0.000000 0.000000 
3.560476 17.244469 0.895663 -4.895793 -83.090782 16.668323 -0.188588 -2.573918 -4.814460 -0.344816 -2.621251 -3.584917 -6.258159 -2.406328 -0.493530 8.826963 -8.790099 -0.991143 -3.836574 -0.357854 1.830521 0.000000 0.000000 0.000000 12.101423 5.849626 -2.547849 -85.917527 -19.488743 21.137647 -178.008176 -54.037655 179.982529 1.309778 -7.993063 -0.097054 0.022735 1.214024 -0.000000 0.000000 0.000000 0.000000 0.000000 0.000000 0.000000 1.269516 -7.178484 -3.652762 82.439340 25.794187 28.518748 -179.128319 54.983647 179.835600 -13.789439 8.480280 -1.170568 0.363119 -0.957060 -0.000000 0.000000 0.000000 0.000000 0.000000 0.000000 0.000000 
3.565210 17.247873 0.893110 -4.219726 -82.019817 16.101123 -0.378754 -2.509873 -5.021065 -0.346756 -2.534072 -3.677853 -6.013144 -2.340904 -0.762636 8.767697 -8.204126 -0.365843 -3.766274 -0.359295 2.003519 0.000000 0.000000 0.000000 11.960344 5.323745 -2.583418 -86.664981 -20.452610 22.500423 -178.087593 -54.509731 179.980898 1.348872 -8.001137 -0.100245 0.026063 1.221142 -0.000000 0.000000 0.000000 0.000000 0.000000 0.000000 0.000000 1.200910 -6.705218 -3.682281 80.788043 27.594665 26.982806 -179.104107 55.529132 179.830058 -14.193649 8.220865 -1.169993 0.365636 -0.945518 -0.000000 0.000000 0.000000 0.000000 0.000000 0.000000 0.000000 
3.572887 17.251484 0.891837 -3.653726 -81.029976 15.613324 -0.563018 -2.433750 -5.221473 -0.333251 -2.431279 -3.794371 -5.660177 -2.266024 -1.129102 8.557539 -7.443201 0.385854 -3.678508 -0.361190 2.211955 0.000000 0.000000 0.000000 11.690714 4.603627 -2.592712 -87.375633 -21.219834 23.753969 -178.230506 -54.952466 179.978278 1.404756 -7.978373 -0.104122 0.033455 1.224189 -0.000000 0.000000 0.000000 0.000000 0.000000 0.000000 0.000000 1.072734 -6.011312 -3.706431 78.788930 29.847440 25.150613 -179.079727 56.600380 179.826306 -14.457515 7.731427 -1.124026 0.356257 -0.922356 -0.000000 0.000000 0.000000 0.000000 0.000000 0.000000 0.000000 
3.584185 17.255303 0.891793 -3.161278 -80.146962 15.165064 -0.718796 -2.336230 -5.399299 -0.300833 -2.305084 -3.928815 -5.198596 -2.170560 -1.577316 8.166062 -6.522829 1.219388 -3.571975 -0.363197 2.443417 0.000000 0.000000 0.000000 11.255176 3.730252 -2.586500 -88.016662 -21.830844 24.876401 -178.424805 -55.349365 179.974790 1.480008 -7.915385 -0.108792 0.043880 1.222552 -0.000000 0.000000 0.000000 0.000000 0.000000 0.000000 0.000000 0.891869 -5.100080 -3.710457 76.387217 32.564525 22.963040 -179.039194 58.391351 179.824637 -14.580497 6.967709 -1.026850 0.332820 -0.886110 -0.000000 0.000000 0.000000 0.000000 0.000000 0.000000 0.000000 
3.599082 17.259186 0.892826 -2.710067 -79.395750 14.740796 -0.814704 -2.204589 -5.546069 -0.246964 -2.146210 -4.075254 -4.648237 -2.041318 -2.085632 7.566624 -5.462549 2.070697 -3.440623 -0.364529 2.680284 0.000000 0.000000 0.000000 10.628898 2.779963 -2.580973 -88.565413 -22.345714 25.874902 -178.649698 -55.697752 179.970876 1.559219 -7.839241 -0.113458 0.056494 1.217065 -0.000000 0.000000 0.000000 0.000000 0.000000 0.000000 0.000000 0.609249 -3.987314 -3.684736 73.600466 35.662013 20.359683 -178.959237 61.098405 179.824705 -14.588763 6.019495 -0.894927 0.293747 -0.841505 -0.000000 0.000000 0.000000 0.000000 0.000000 0.000000 0.000000 
3.617999 17.263463 0.894563 -2.276524 -78.803028 14.310348 -0.836946 -2.028453 -5.631351 -0.174655 -1.946945 -4.220218 -4.047423 -1.866656 -2.621482 6.782720 -4.311714 2.866115 -3.292202 -0.365041 2.901919 0.000000 0.000000 0.000000 9.822970 1.825740 -2.596695 -89.017624 -22.826333 26.769163 -178.880769 -55.986790 179.966772 1.652451 -7.726544 -0.118610 0.068735 1.206728 -0.000000 0.000000 0.000000 0.000000 0.000000 0.000000 0.000000 0.258035 -2.740998 -3.609127 70.393819 39.088092 17.322752 -178.854400 64.905522 179.825861 -14.573905 4.890756 -0.737807 0.243341 -0.792049 -0.000000 0.000000 0.000000 0.000000 0.000000 0.000000 0.000000 
3.640535 17.267880 0.896451 -1.819713 -78.400608 13.856299 -0.768236 -1.798591 -5.649347 -0.087064 -1.701924 -4.358582 -3.440722 -1.639736 -3.169304 5.820593 -3.107185 3.548483 -3.121936 -0.363993 3.092992 0.000000 0.000000 0.000000 8.869285 0.954803 -2.646701 -89.380060 -23.315390 27.583586 -179.095949 -56.210324 179.962957 1.740943 -7.612707 -0.123337 0.079810 1.193032 -0.000000 0.000000 0.000000 0.000000 0.000000 0.000000 0.000000 -0.264733 -1.423106 -3.502240 66.940850 42.672922 13.863299 -178.767528 69.976807 179.826978 -14.607025 3.740800 -0.581434 0.185350 -0.746723 -0.000000 0.000000 0.000000 0.000000 0.000000 0.000000 0.000000 
